# xmcd CD database file
#
# Track frame offsets:
#	150
#	4272
#	27280
#	41112
#	70045
#	85165
#	98415
#	115972
#	136545
#	153675
#
# Disc length: 2379 seconds
#
# Revision: 1
# Processed by: cddbd v1.5.2PL0 Copyright (c) Steve Scherf et al.
# Submitted via: CDex 1.70beta3
#
DISCID=7409490a
DTITLE=BOW WOW - Signal Fire
DYEAR=1977
DGENRE=J-Metal
TTITLE0=Prelude
TTITLE1=天国行超特急
TTITLE2=Just One More Night
TTITLE3=Silver Lightning
TTITLE4=Electric Power Up
TTITLE5=Rock 'N' Roll Drive
TTITLE6=Rainbow Of Sabbath
TTITLE7=Tell Me Tell Me
TTITLE8=Signal Fire
TTITLE9=Still
EXTD=YEAR: 1977
EXTT0=
EXTT1=
EXTT2=
EXTT3=
EXTT4=
EXTT5=
EXTT6=
EXTT7=
EXTT8=
EXTT9=
PLAYORDER=
